Coordinates
nRows=122
nColumns=2
inDegrees=yes
endheader
time	ankle_angle_r	
2.79133	 -5.392406	
2.8629	 -5.379883	
2.93448	 -5.401611	
3.00605	 -5.401611	
3.07762	 -5.420729	
3.14919	 -5.405678	
3.22077	 -5.375369	
3.29234	 -5.432129	
3.36391	 -5.410993	
3.43548	 -5.406510	
3.50706	 -5.376201	
3.57863	 -5.406240	
3.6502	 -5.437652	
3.72177	 -5.313856	
3.79335	 -5.371094	
3.86492	 -5.334429	
3.93649	 -5.368545	
4.00806	 -5.364531	
4.07964	 -5.318546	
4.15121	 -5.387653	
4.22278	 -5.354950	
4.29435	 -5.348440	
4.36593	 -5.325317	
4.4375	 -5.378541	
4.50907	 -5.341355	
4.58065	 -5.294800	
4.65222	 -5.340576	
4.72379	 -5.331933	
4.79536	 -5.334168	
4.86694	 -5.282401	
4.93851	 -5.328033	
5.01008	 -5.407395	
5.08165	 -5.294800	
5.15323	 -5.325317	
5.2248	 -5.294800	
5.29637	 -5.325317	
5.36794	 -5.279541	
5.43952	 -5.238300	
5.51109	 -5.325317	
5.58266	 -5.336457	
5.65423	 -5.336665	
5.72581	 -5.329021	
5.79738	 -5.416870	
5.86895	 -5.444100	
5.94052	 -5.383273	
6.0121	 -5.422613	
6.08367	 -5.424139	
6.15524	 -5.440022	
6.22681	 -5.342824	
6.29839	 -5.369055	
6.36996	 -5.432129	
6.44153	 -5.389599	
6.5131	 -5.328147	
6.58468	 -5.341783	
6.65625	 -5.385354	
6.72782	 -5.326108	
6.7994	 -5.325901	
6.87097	 -5.387103	
6.94254	 -5.325317	
7.01411	 -5.371135	
7.08569	 -5.340078	
7.15726	 -5.370636	
7.22883	 -5.370429	
7.3004	 -5.310059	
7.37198	 -5.370013	
7.44355	 -5.340576	
7.51512	 -5.342073	
7.58669	 -5.296505	
7.65827	 -5.296713	
7.72984	 -5.323196	
7.80141	 -5.358164	
7.87298	 -5.327855	
7.94456	 -5.353090	
8.01613	 -5.401611	
8.0877	 -5.340576	
8.15927	 -5.298169	
8.23085	 -5.363939	
8.30242	 -5.374996	
8.37399	 -5.341291	
8.44556	 -5.299001	
8.51714	 -5.331757	
8.58871	 -5.401611	
8.66028	 -5.381527	
8.73185	 -5.386353	
8.80343	 -5.371094	
8.875	 -5.452837	
8.94657	 -5.407269	
9.01815	 -5.376959	
9.08972	 -5.426055	
9.16129	 -5.416870	
9.23286	 -5.432129	
9.30444	 -5.379655	
9.37601	 -5.433576	
9.44758	 -5.462646	
9.51915	 -5.393674	
9.59073	 -5.378823	
9.6623	 -5.348314	
9.73387	 -5.394299	
9.80544	 -5.325317	
9.87702	 -5.332214	
9.94859	 -5.362524	
10.0202	 -5.355835	
10.0917	 -5.325317	
10.1633	 -5.340576	
10.2349	 -5.435674	
10.3065	 -5.420831	
10.378	 -5.376534	
10.4496	 -5.432129	
10.5212	 -5.411845	
10.5927	 -5.453013	
10.6643	 -5.395570	
10.7359	 -5.432129	
10.8075	 -5.466839	
10.879	 -5.412886	
10.9506	 -5.416870	
11.0222	 -5.416870	
11.0937	 -5.450748	
11.1653	 -5.386353	
11.2369	 -5.355835	
11.3085	 -5.434865	
11.38	 -5.373622	
11.4516	 -5.360476	
